<?xml version="1.0" encoding="UTF-8"?><svg id="Livello_1" xmlns="http://www.w3.org/2000/svg" viewBox="0 0 700.5 700.5"><defs><style>.cls-1,.cls-2{fill:#2c007e;}.cls-3{fill:#fff;font-family:TimesNewRomanPSMT, 'Times New Roman';}.cls-3,.cls-2{font-size:136px;opacity:.98;}.cls-2{font-family:TimesNewRomanPS-BoldMT, 'Times New Roman';font-weight:700;}.cls-4{fill:#281075;}</style></defs><rect class="cls-4" x="622.47" y="389.14" width="19.45" height="19.44"/><rect class="cls-4" x="622.47" y="369.69" width="19.45" height="19.45"/><rect class="cls-4" x="622.47" y="330.81" width="19.45" height="19.44"/><rect class="cls-4" x="622.47" y="311.36" width="19.45" height="19.45"/><rect class="cls-4" x="622.47" y="291.92" width="19.45" height="19.44"/><rect class="cls-4" x="603.03" y="408.58" width="19.44" height="19.45"/><rect class="cls-4" x="603.03" y="389.14" width="19.44" height="19.44"/><rect class="cls-1" x="603.03" y="369.69" width="19.44" height="19.45"/><rect class="cls-4" x="603.03" y="350.25" width="19.44" height="19.44"/><rect class="cls-4" x="603.03" y="330.81" width="19.44" height="19.44"/><rect class="cls-4" x="603.03" y="311.36" width="19.44" height="19.45"/><rect class="cls-4" x="603.03" y="291.92" width="19.44" height="19.44"/><rect class="cls-4" x="603.03" y="272.47" width="19.44" height="19.45"/><rect class="cls-4" x="603.03" y="253.03" width="19.44" height="19.44"/><rect class="cls-4" x="583.58" y="428.03" width="19.45" height="19.44"/><rect class="cls-4" x="583.58" y="408.58" width="19.45" height="19.45"/><rect x="583.58" y="389.14" width="19.45" height="19.44"/><rect x="583.58" y="369.69" width="19.45" height="19.45"/><rect class="cls-4" x="583.58" y="350.25" width="19.45" height="19.44"/><rect x="583.58" y="330.81" width="19.45" height="19.44"/><rect x="583.58" y="311.36" width="19.45" height="19.45"/><rect x="583.58" y="291.92" width="19.45" height="19.44"/><rect class="cls-4" x="583.58" y="272.47" width="19.45" height="19.45"/><rect class="cls-4" x="583.58" y="253.03" width="19.45" height="19.44"/><rect class="cls-4" x="583.58" y="233.58" width="19.45" height="19.45"/><rect class="cls-4" x="564.14" y="447.47" width="19.44" height="19.45"/><rect class="cls-4" x="564.14" y="428.03" width="19.44" height="19.44"/><rect x="564.14" y="408.58" width="19.44" height="19.45"/><rect x="564.14" y="389.14" width="19.44" height="19.44"/><rect x="564.14" y="369.69" width="19.44" height="19.45"/><rect x="564.14" y="350.25" width="19.44" height="19.44"/><rect x="564.14" y="330.81" width="19.44" height="19.44"/><rect x="564.14" y="311.36" width="19.44" height="19.45"/><rect x="564.14" y="291.92" width="19.44" height="19.44"/><rect x="564.14" y="272.47" width="19.44" height="19.45"/><rect x="564.14" y="253.03" width="19.44" height="19.44"/><rect class="cls-1" x="564.14" y="233.58" width="19.44" height="19.45"/><rect class="cls-4" x="564.14" y="214.14" width="19.44" height="19.44"/><rect class="cls-4" x="544.69" y="447.47" width="19.45" height="19.45"/><rect class="cls-1" x="544.69" y="428.03" width="19.45" height="19.44"/><rect x="544.69" y="408.58" width="19.45" height="19.45"/><rect x="544.69" y="389.14" width="19.45" height="19.44"/><rect x="544.69" y="369.69" width="19.45" height="19.45"/><rect x="544.69" y="350.25" width="19.45" height="19.44"/><rect x="544.69" y="330.81" width="19.45" height="19.44"/><rect x="544.69" y="311.36" width="19.45" height="19.45"/><rect x="544.69" y="291.92" width="19.45" height="19.44"/><rect x="544.69" y="272.47" width="19.45" height="19.45"/><rect x="544.69" y="253.03" width="19.45" height="19.44"/><rect class="cls-4" x="544.69" y="233.58" width="19.45" height="19.45"/><rect class="cls-4" x="544.69" y="214.14" width="19.45" height="19.44"/><rect class="cls-4" x="525.25" y="466.92" width="19.44" height="19.44"/><rect class="cls-4" x="525.25" y="447.47" width="19.44" height="19.45"/><rect x="525.25" y="428.03" width="19.44" height="19.44"/><rect x="525.25" y="408.58" width="19.44" height="19.45"/><rect x="525.25" y="389.14" width="19.44" height="19.44"/><rect x="525.25" y="369.69" width="19.44" height="19.45"/><rect x="525.25" y="350.25" width="19.44" height="19.44"/><rect x="525.25" y="330.81" width="19.44" height="19.44"/><rect x="525.25" y="311.36" width="19.44" height="19.45"/><rect x="525.25" y="291.92" width="19.44" height="19.44"/><rect x="525.25" y="272.47" width="19.44" height="19.45"/><rect x="525.25" y="253.03" width="19.44" height="19.44"/><rect x="525.25" y="233.58" width="19.44" height="19.45"/><rect class="cls-4" x="525.25" y="214.14" width="19.44" height="19.44"/><rect class="cls-4" x="525.25" y="194.69" width="19.44" height="19.45"/><rect class="cls-4" x="505.81" y="486.36" width="19.44" height="19.45"/><rect class="cls-4" x="505.81" y="466.92" width="19.44" height="19.44"/><rect x="505.81" y="447.47" width="19.44" height="19.45"/><rect x="505.81" y="428.03" width="19.44" height="19.44"/><rect x="505.81" y="408.58" width="19.44" height="19.45"/><rect x="505.81" y="389.14" width="19.44" height="19.44"/><rect x="505.81" y="369.69" width="19.44" height="19.45"/><rect x="505.81" y="350.25" width="19.44" height="19.44"/><rect x="505.81" y="330.81" width="19.44" height="19.44"/><rect x="505.81" y="311.36" width="19.44" height="19.45"/><rect x="505.81" y="291.92" width="19.44" height="19.44"/><rect x="505.81" y="272.47" width="19.44" height="19.45"/><rect x="505.81" y="253.03" width="19.44" height="19.44"/><rect x="505.81" y="233.58" width="19.44" height="19.45"/><rect class="cls-4" x="505.81" y="214.14" width="19.44" height="19.44"/><rect class="cls-4" x="505.81" y="194.69" width="19.44" height="19.45"/><rect class="cls-4" x="486.36" y="486.36" width="19.45" height="19.45"/><rect class="cls-1" x="486.36" y="466.92" width="19.45" height="19.44"/><rect x="486.36" y="447.47" width="19.45" height="19.45"/><rect x="486.36" y="428.03" width="19.45" height="19.44"/><rect x="486.36" y="408.58" width="19.45" height="19.45"/><rect x="486.36" y="389.14" width="19.45" height="19.44"/><rect x="486.36" y="369.69" width="19.45" height="19.45"/><rect x="486.36" y="350.25" width="19.45" height="19.44"/><rect x="486.36" y="330.81" width="19.45" height="19.44"/><rect x="486.36" y="311.36" width="19.45" height="19.45"/><rect x="486.36" y="291.92" width="19.45" height="19.44"/><rect x="486.36" y="272.47" width="19.45" height="19.45"/><rect x="486.36" y="253.03" width="19.45" height="19.44"/><rect x="486.36" y="233.58" width="19.45" height="19.45"/><rect class="cls-4" x="486.36" y="214.14" width="19.45" height="19.44"/><rect class="cls-4" x="486.36" y="194.69" width="19.45" height="19.45"/><rect class="cls-4" x="466.92" y="466.92" width="19.44" height="19.44"/><rect class="cls-4" x="466.92" y="447.47" width="19.44" height="19.45"/><rect x="466.92" y="428.03" width="19.44" height="19.44"/><rect x="466.92" y="408.58" width="19.44" height="19.45"/><rect x="466.92" y="389.14" width="19.44" height="19.44"/><rect x="466.92" y="369.69" width="19.44" height="19.45"/><rect x="466.92" y="350.25" width="19.44" height="19.44"/><rect x="466.92" y="330.81" width="19.44" height="19.44"/><rect x="466.92" y="311.36" width="19.44" height="19.45"/><rect x="466.92" y="291.92" width="19.44" height="19.44"/><rect x="466.92" y="272.47" width="19.44" height="19.45"/><rect x="466.92" y="253.03" width="19.44" height="19.44"/><rect class="cls-1" x="466.92" y="233.58" width="19.44" height="19.45"/><rect class="cls-4" x="466.92" y="214.14" width="19.44" height="19.44"/><rect class="cls-4" x="447.47" y="466.92" width="19.45" height="19.44"/><rect class="cls-1" x="447.47" y="447.47" width="19.45" height="19.45"/><rect x="447.47" y="428.03" width="19.45" height="19.44"/><rect x="447.47" y="408.58" width="19.45" height="19.45"/><rect x="447.47" y="389.14" width="19.45" height="19.44"/><rect class="cls-4" x="447.47" y="369.69" width="19.45" height="19.45"/><rect x="447.47" y="350.25" width="19.45" height="19.44"/><rect x="447.47" y="330.81" width="19.45" height="19.44"/><rect class="cls-4" x="447.47" y="311.36" width="19.45" height="19.45"/><rect class="cls-4" x="447.47" y="291.92" width="19.45" height="19.44"/><rect x="447.47" y="272.47" width="19.45" height="19.45"/><rect x="447.47" y="253.03" width="19.45" height="19.44"/><rect class="cls-4" x="447.47" y="233.58" width="19.45" height="19.45"/><rect class="cls-4" x="447.47" y="214.14" width="19.45" height="19.44"/><rect class="cls-4" x="428.03" y="486.36" width="19.44" height="19.45"/><rect class="cls-4" x="428.03" y="466.92" width="19.44" height="19.44"/><rect x="428.03" y="447.47" width="19.44" height="19.45"/><rect x="428.03" y="428.03" width="19.44" height="19.44"/><rect x="428.03" y="408.58" width="19.44" height="19.45"/><rect class="cls-4" x="428.03" y="389.14" width="19.44" height="19.44"/><rect class="cls-4" x="428.03" y="369.69" width="19.44" height="19.45"/><rect class="cls-4" x="428.03" y="350.25" width="19.44" height="19.44"/><rect class="cls-4" x="428.03" y="330.81" width="19.44" height="19.44"/><rect class="cls-4" x="428.03" y="311.36" width="19.44" height="19.45"/><rect class="cls-4" x="428.03" y="291.92" width="19.44" height="19.44"/><rect class="cls-4" x="428.03" y="272.47" width="19.44" height="19.45"/><rect x="428.03" y="253.03" width="19.44" height="19.44"/><rect x="428.03" y="233.58" width="19.44" height="19.45"/><rect class="cls-4" x="428.03" y="214.14" width="19.44" height="19.44"/><rect class="cls-4" x="428.03" y="194.69" width="19.44" height="19.45"/><rect class="cls-4" x="408.58" y="486.36" width="19.45" height="19.45"/><rect class="cls-4" x="408.58" y="466.92" width="19.45" height="19.44"/><rect x="408.58" y="447.47" width="19.45" height="19.45"/><rect class="cls-4" x="408.58" y="428.03" width="19.45" height="19.44"/><rect class="cls-4" x="408.58" y="408.58" width="19.45" height="19.45"/><rect class="cls-4" x="408.58" y="389.14" width="19.45" height="19.44"/><rect class="cls-4" x="408.58" y="369.69" width="19.45" height="19.45"/><rect class="cls-4" x="408.58" y="350.25" width="19.45" height="19.44"/><rect class="cls-4" x="408.58" y="330.81" width="19.45" height="19.44"/><rect class="cls-4" x="408.58" y="311.36" width="19.45" height="19.45"/><rect class="cls-4" x="408.58" y="291.92" width="19.45" height="19.44"/><rect class="cls-4" x="408.58" y="272.47" width="19.45" height="19.45"/><rect class="cls-4" x="408.58" y="253.03" width="19.45" height="19.44"/><rect class="cls-1" x="408.58" y="233.58" width="19.45" height="19.45"/><rect class="cls-4" x="408.58" y="214.14" width="19.45" height="19.44"/><rect class="cls-4" x="389.14" y="466.92" width="19.44" height="19.44"/><rect class="cls-1" x="389.14" y="447.47" width="19.44" height="19.45"/><rect class="cls-4" x="389.14" y="428.03" width="19.44" height="19.44"/><rect class="cls-4" x="389.14" y="408.58" width="19.44" height="19.45"/><rect class="cls-4" x="389.14" y="389.14" width="19.44" height="19.44"/><rect class="cls-4" x="389.14" y="369.69" width="19.44" height="19.45"/><rect class="cls-4" x="389.14" y="350.25" width="19.44" height="19.44"/><rect class="cls-4" x="389.14" y="330.81" width="19.44" height="19.44"/><rect class="cls-4" x="389.14" y="311.36" width="19.44" height="19.45"/><rect class="cls-4" x="389.14" y="291.92" width="19.44" height="19.44"/><rect class="cls-4" x="389.14" y="272.47" width="19.44" height="19.45"/><rect class="cls-4" x="389.14" y="253.03" width="19.44" height="19.44"/><rect class="cls-4" x="389.14" y="233.58" width="19.44" height="19.45"/><rect class="cls-4" x="389.14" y="214.14" width="19.44" height="19.44"/><rect class="cls-4" x="369.69" y="486.36" width="19.45" height="19.45"/><rect class="cls-1" x="369.69" y="466.92" width="19.45" height="19.44"/><rect class="cls-4" x="369.69" y="447.47" width="19.45" height="19.45"/><rect class="cls-4" x="369.69" y="428.03" width="19.45" height="19.44"/><rect class="cls-4" x="369.69" y="408.58" width="19.45" height="19.45"/><rect class="cls-4" x="369.69" y="389.14" width="19.45" height="19.44"/><rect class="cls-4" x="369.69" y="369.69" width="19.45" height="19.45"/><rect class="cls-4" x="369.69" y="350.25" width="19.45" height="19.44"/><rect class="cls-4" x="369.69" y="330.81" width="19.45" height="19.44"/><rect class="cls-4" x="369.69" y="311.36" width="19.45" height="19.45"/><rect class="cls-4" x="369.69" y="291.92" width="19.45" height="19.44"/><rect class="cls-4" x="369.69" y="272.47" width="19.45" height="19.45"/><rect class="cls-4" x="369.69" y="253.03" width="19.45" height="19.44"/><rect class="cls-4" x="369.69" y="233.58" width="19.45" height="19.45"/><rect class="cls-4" x="369.69" y="214.14" width="19.45" height="19.44"/><rect class="cls-4" x="350.25" y="486.36" width="19.44" height="19.45"/><rect class="cls-4" x="350.25" y="466.92" width="19.44" height="19.44"/><rect class="cls-4" x="350.25" y="447.47" width="19.44" height="19.45"/><rect class="cls-4" x="350.25" y="428.03" width="19.44" height="19.44"/><rect class="cls-4" x="350.25" y="408.58" width="19.44" height="19.45"/><rect class="cls-4" x="350.25" y="389.14" width="19.44" height="19.44"/><rect class="cls-4" x="350.25" y="369.69" width="19.44" height="19.45"/><rect class="cls-4" x="350.25" y="350.25" width="19.44" height="19.44"/><rect class="cls-4" x="350.25" y="330.81" width="19.44" height="19.44"/><rect class="cls-4" x="350.25" y="311.36" width="19.44" height="19.45"/><rect class="cls-4" x="350.25" y="291.92" width="19.44" height="19.44"/><rect class="cls-4" x="350.25" y="272.47" width="19.44" height="19.45"/><rect class="cls-4" x="350.25" y="253.03" width="19.44" height="19.44"/><rect class="cls-4" x="350.25" y="233.58" width="19.44" height="19.45"/><rect class="cls-4" x="350.25" y="214.14" width="19.44" height="19.44"/><rect class="cls-4" x="330.81" y="486.36" width="19.44" height="19.45"/><rect class="cls-1" x="330.81" y="466.92" width="19.44" height="19.44"/><rect class="cls-4" x="330.81" y="447.47" width="19.44" height="19.45"/><rect class="cls-4" x="330.81" y="428.03" width="19.44" height="19.44"/><rect class="cls-4" x="330.81" y="408.58" width="19.44" height="19.45"/><rect class="cls-4" x="330.81" y="389.14" width="19.44" height="19.44"/><rect class="cls-4" x="330.81" y="369.69" width="19.44" height="19.45"/><rect class="cls-4" x="330.81" y="350.25" width="19.44" height="19.44"/><rect class="cls-4" x="330.81" y="330.81" width="19.44" height="19.44"/><rect class="cls-4" x="330.81" y="311.36" width="19.44" height="19.45"/><rect class="cls-4" x="330.81" y="291.92" width="19.44" height="19.44"/><rect class="cls-4" x="330.81" y="272.47" width="19.44" height="19.45"/><rect class="cls-4" x="330.81" y="253.03" width="19.44" height="19.44"/><rect class="cls-4" x="330.81" y="233.58" width="19.44" height="19.45"/><rect class="cls-4" x="330.81" y="214.14" width="19.44" height="19.44"/><rect class="cls-4" x="330.81" y="194.69" width="19.44" height="19.45"/><rect class="cls-4" x="311.36" y="466.92" width="19.45" height="19.44"/><rect class="cls-4" x="311.36" y="447.47" width="19.45" height="19.45"/><rect class="cls-4" x="311.36" y="428.03" width="19.45" height="19.44"/><rect class="cls-4" x="311.36" y="408.58" width="19.45" height="19.45"/><rect class="cls-4" x="311.36" y="389.14" width="19.45" height="19.44"/><rect class="cls-4" x="311.36" y="369.69" width="19.45" height="19.45"/><rect class="cls-4" x="311.36" y="350.25" width="19.45" height="19.44"/><rect class="cls-4" x="311.36" y="330.81" width="19.45" height="19.44"/><rect class="cls-4" x="311.36" y="311.36" width="19.45" height="19.45"/><rect class="cls-4" x="311.36" y="291.92" width="19.45" height="19.44"/><rect class="cls-4" x="311.36" y="272.47" width="19.45" height="19.45"/><rect class="cls-4" x="311.36" y="253.03" width="19.45" height="19.44"/><rect class="cls-4" x="311.36" y="233.58" width="19.45" height="19.45"/><rect class="cls-4" x="311.36" y="214.14" width="19.45" height="19.44"/><rect class="cls-4" x="311.36" y="194.69" width="19.45" height="19.45"/><rect class="cls-4" x="291.92" y="466.92" width="19.44" height="19.44"/><rect class="cls-1" x="291.92" y="447.47" width="19.44" height="19.45"/><rect class="cls-4" x="291.92" y="428.03" width="19.44" height="19.44"/><rect class="cls-4" x="291.92" y="408.58" width="19.44" height="19.45"/><rect class="cls-4" x="291.92" y="389.14" width="19.44" height="19.44"/><rect class="cls-4" x="291.92" y="369.69" width="19.44" height="19.45"/><rect class="cls-4" x="291.92" y="350.25" width="19.44" height="19.44"/><rect class="cls-4" x="291.92" y="330.81" width="19.44" height="19.44"/><rect class="cls-4" x="291.92" y="311.36" width="19.44" height="19.45"/><rect class="cls-4" x="291.92" y="291.92" width="19.44" height="19.44"/><rect class="cls-4" x="291.92" y="272.47" width="19.44" height="19.45"/><rect class="cls-4" x="291.92" y="253.03" width="19.44" height="19.44"/><rect class="cls-4" x="291.92" y="233.58" width="19.44" height="19.45"/><rect class="cls-4" x="291.92" y="214.14" width="19.44" height="19.44"/><rect class="cls-4" x="291.92" y="194.69" width="19.44" height="19.45"/><rect class="cls-4" x="272.47" y="486.36" width="19.45" height="19.45"/><rect class="cls-4" x="272.47" y="466.92" width="19.45" height="19.44"/><rect class="cls-4" x="272.47" y="447.47" width="19.45" height="19.45"/><rect class="cls-4" x="272.47" y="428.03" width="19.45" height="19.44"/><rect class="cls-4" x="272.47" y="408.58" width="19.45" height="19.45"/><rect class="cls-4" x="272.47" y="389.14" width="19.45" height="19.44"/><rect class="cls-4" x="272.47" y="369.69" width="19.45" height="19.45"/><rect class="cls-4" x="272.47" y="350.25" width="19.45" height="19.44"/><rect class="cls-4" x="272.47" y="330.81" width="19.45" height="19.44"/><rect class="cls-4" x="272.47" y="311.36" width="19.45" height="19.45"/><rect class="cls-4" x="272.47" y="291.92" width="19.45" height="19.44"/><rect class="cls-4" x="272.47" y="272.47" width="19.45" height="19.45"/><rect x="272.47" y="253.03" width="19.45" height="19.44"/><rect x="272.47" y="233.58" width="19.45" height="19.45"/><rect class="cls-4" x="272.47" y="214.14" width="19.45" height="19.44"/><rect class="cls-4" x="272.47" y="194.69" width="19.45" height="19.45"/><rect class="cls-4" x="253.03" y="486.36" width="19.44" height="19.45"/><rect class="cls-4" x="253.03" y="466.92" width="19.44" height="19.44"/><rect class="cls-4" x="253.03" y="447.47" width="19.44" height="19.45"/><rect class="cls-4" x="253.03" y="428.03" width="19.44" height="19.44"/><rect class="cls-4" x="253.03" y="408.58" width="19.44" height="19.45"/><rect class="cls-4" x="253.03" y="389.14" width="19.44" height="19.44"/><rect class="cls-4" x="253.03" y="369.69" width="19.44" height="19.45"/><rect class="cls-4" x="253.03" y="350.25" width="19.44" height="19.44"/><rect class="cls-4" x="253.03" y="330.81" width="19.44" height="19.44"/><rect class="cls-4" x="253.03" y="311.36" width="19.44" height="19.45"/><rect class="cls-4" x="253.03" y="291.92" width="19.44" height="19.44"/><rect x="253.03" y="272.47" width="19.44" height="19.45"/><rect x="253.03" y="253.03" width="19.44" height="19.44"/><rect x="253.03" y="233.58" width="19.44" height="19.45"/><rect class="cls-4" x="253.03" y="214.14" width="19.44" height="19.44"/><rect class="cls-4" x="253.03" y="194.69" width="19.44" height="19.45"/><rect class="cls-4" x="233.58" y="486.36" width="19.45" height="19.45"/><rect class="cls-4" x="233.58" y="466.92" width="19.45" height="19.44"/><rect x="233.58" y="447.47" width="19.45" height="19.45"/><rect x="233.58" y="428.03" width="19.45" height="19.44"/><rect class="cls-4" x="233.58" y="408.58" width="19.45" height="19.45"/><rect class="cls-4" x="233.58" y="389.14" width="19.45" height="19.44"/><rect x="233.58" y="369.69" width="19.45" height="19.45"/><rect x="233.58" y="350.25" width="19.45" height="19.44"/><rect class="cls-4" x="233.58" y="330.81" width="19.45" height="19.44"/><rect class="cls-4" x="233.58" y="311.36" width="19.45" height="19.45"/><rect x="233.58" y="291.92" width="19.45" height="19.44"/><rect x="233.58" y="272.47" width="19.45" height="19.45"/><rect x="233.58" y="253.03" width="19.45" height="19.44"/><rect x="233.58" y="233.58" width="19.45" height="19.45"/><rect class="cls-4" x="233.58" y="214.14" width="19.45" height="19.44"/><rect class="cls-4" x="233.58" y="194.69" width="19.45" height="19.45"/><rect class="cls-4" x="214.14" y="486.36" width="19.44" height="19.45"/><rect class="cls-1" x="214.14" y="466.92" width="19.44" height="19.44"/><rect x="214.14" y="447.47" width="19.44" height="19.45"/><rect x="214.14" y="428.03" width="19.44" height="19.44"/><rect x="214.14" y="408.58" width="19.44" height="19.45"/><rect x="214.14" y="389.14" width="19.44" height="19.44"/><rect x="214.14" y="369.69" width="19.44" height="19.45"/><rect x="214.14" y="350.25" width="19.44" height="19.44"/><rect x="214.14" y="330.81" width="19.44" height="19.44"/><rect class="cls-4" x="214.14" y="311.36" width="19.44" height="19.45"/><rect x="214.14" y="291.92" width="19.44" height="19.44"/><rect x="214.14" y="272.47" width="19.44" height="19.45"/><rect x="214.14" y="253.03" width="19.44" height="19.44"/><rect x="214.14" y="233.58" width="19.44" height="19.45"/><rect class="cls-4" x="214.14" y="214.14" width="19.44" height="19.44"/><rect class="cls-4" x="214.14" y="194.69" width="19.44" height="19.45"/><rect class="cls-4" x="194.69" y="466.92" width="19.45" height="19.44"/><rect class="cls-4" x="194.69" y="447.47" width="19.45" height="19.45"/><rect x="194.69" y="428.03" width="19.45" height="19.44"/><rect x="194.69" y="408.58" width="19.45" height="19.45"/><rect x="194.69" y="389.14" width="19.45" height="19.44"/><rect x="194.69" y="369.69" width="19.45" height="19.45"/><rect x="194.69" y="350.25" width="19.45" height="19.44"/><rect x="194.69" y="330.81" width="19.45" height="19.44"/><rect x="194.69" y="311.36" width="19.45" height="19.45"/><rect x="194.69" y="291.92" width="19.45" height="19.44"/><rect x="194.69" y="272.47" width="19.45" height="19.45"/><rect x="194.69" y="253.03" width="19.45" height="19.44"/><rect x="194.69" y="233.58" width="19.45" height="19.45"/><rect class="cls-4" x="194.69" y="214.14" width="19.45" height="19.44"/><rect class="cls-4" x="194.69" y="194.69" width="19.45" height="19.45"/><rect class="cls-4" x="175.25" y="466.92" width="19.44" height="19.44"/><rect class="cls-4" x="175.25" y="447.47" width="19.44" height="19.45"/><rect x="175.25" y="428.03" width="19.44" height="19.44"/><rect x="175.25" y="408.58" width="19.44" height="19.45"/><rect x="175.25" y="389.14" width="19.44" height="19.44"/><rect x="175.25" y="369.69" width="19.44" height="19.45"/><rect x="175.25" y="350.25" width="19.44" height="19.44"/><rect x="175.25" y="330.81" width="19.44" height="19.44"/><rect x="175.25" y="311.36" width="19.44" height="19.45"/><rect x="175.25" y="291.92" width="19.44" height="19.44"/><rect x="175.25" y="272.47" width="19.44" height="19.45"/><rect x="175.25" y="253.03" width="19.44" height="19.44"/><rect class="cls-4" x="175.25" y="233.58" width="19.44" height="19.45"/><rect class="cls-4" x="175.25" y="214.14" width="19.44" height="19.44"/><rect class="cls-4" x="155.81" y="486.36" width="19.44" height="19.45"/><rect class="cls-4" x="155.81" y="466.92" width="19.44" height="19.44"/><rect x="155.81" y="447.47" width="19.44" height="19.45"/><rect x="155.81" y="428.03" width="19.44" height="19.44"/><rect x="155.81" y="408.58" width="19.44" height="19.45"/><rect x="155.81" y="389.14" width="19.44" height="19.44"/><rect x="155.81" y="369.69" width="19.44" height="19.45"/><rect x="155.81" y="350.25" width="19.44" height="19.44"/><rect x="155.81" y="330.81" width="19.44" height="19.44"/><rect x="155.81" y="311.36" width="19.44" height="19.45"/><rect x="155.81" y="291.92" width="19.44" height="19.44"/><rect x="155.81" y="272.47" width="19.44" height="19.45"/><rect x="155.81" y="253.03" width="19.44" height="19.44"/><rect class="cls-4" x="155.81" y="233.58" width="19.44" height="19.45"/><rect class="cls-4" x="155.81" y="214.14" width="19.44" height="19.44"/><rect class="cls-4" x="136.36" y="466.92" width="19.45" height="19.44"/><rect class="cls-1" x="136.36" y="447.47" width="19.45" height="19.45"/><rect x="136.36" y="428.03" width="19.45" height="19.44"/><rect x="136.36" y="408.58" width="19.45" height="19.45"/><rect x="136.36" y="389.14" width="19.45" height="19.44"/><rect x="136.36" y="369.69" width="19.45" height="19.45"/><rect x="136.36" y="350.25" width="19.45" height="19.44"/><rect x="136.36" y="330.81" width="19.45" height="19.44"/><rect x="136.36" y="311.36" width="19.45" height="19.45"/><rect x="136.36" y="291.92" width="19.45" height="19.44"/><rect x="136.36" y="272.47" width="19.45" height="19.45"/><rect x="136.36" y="253.03" width="19.45" height="19.44"/><rect class="cls-4" x="136.36" y="233.58" width="19.45" height="19.45"/><rect class="cls-4" x="136.36" y="214.14" width="19.45" height="19.44"/><rect class="cls-4" x="116.92" y="447.47" width="19.44" height="19.45"/><rect class="cls-4" x="116.92" y="428.03" width="19.44" height="19.44"/><rect class="cls-4" x="116.92" y="408.58" width="19.44" height="19.45"/><rect x="116.92" y="389.14" width="19.44" height="19.44"/><rect x="116.92" y="369.69" width="19.44" height="19.45"/><rect x="116.92" y="350.25" width="19.44" height="19.44"/><rect x="116.92" y="330.81" width="19.44" height="19.44"/><rect x="116.92" y="311.36" width="19.44" height="19.45"/><rect x="116.92" y="291.92" width="19.44" height="19.44"/><rect x="116.92" y="272.47" width="19.44" height="19.45"/><rect class="cls-1" x="116.92" y="253.03" width="19.44" height="19.44"/><rect class="cls-4" x="116.92" y="233.58" width="19.44" height="19.45"/><rect class="cls-4" x="97.47" y="428.03" width="19.45" height="19.44"/><rect class="cls-4" x="97.47" y="408.58" width="19.45" height="19.45"/><rect class="cls-1" x="97.47" y="389.14" width="19.45" height="19.44"/><rect x="97.47" y="369.69" width="19.45" height="19.45"/><rect x="97.47" y="350.25" width="19.45" height="19.44"/><rect x="97.47" y="330.81" width="19.45" height="19.44"/><rect x="97.47" y="311.36" width="19.45" height="19.45"/><rect class="cls-4" x="97.47" y="291.92" width="19.45" height="19.44"/><rect class="cls-4" x="97.47" y="272.47" width="19.45" height="19.45"/><rect class="cls-4" x="97.47" y="253.03" width="19.45" height="19.44"/><rect class="cls-4" x="78.03" y="389.14" width="19.44" height="19.44"/><rect class="cls-4" x="78.03" y="369.69" width="19.44" height="19.45"/><rect class="cls-4" x="78.03" y="350.25" width="19.44" height="19.44"/><rect class="cls-4" x="78.03" y="330.81" width="19.44" height="19.44"/><rect class="cls-4" x="78.03" y="311.36" width="19.44" height="19.45"/><rect class="cls-4" x="78.03" y="291.92" width="19.44" height="19.44"/><rect class="cls-4" x="78.03" y="272.47" width="19.44" height="19.45"/><rect class="cls-4" x="58.58" y="369.69" width="19.45" height="19.45"/><rect class="cls-4" x="58.58" y="350.25" width="19.45" height="19.44"/><rect class="cls-4" x="58.58" y="330.81" width="19.45" height="19.44"/><rect class="cls-4" x="58.58" y="311.36" width="19.45" height="19.45"/><text class="cls-3" transform="translate(263.32 397.51)"><tspan x="0" y="0">AF</tspan></text><text class="cls-2" transform="translate(119.5 395.33)"><tspan x="0" y="0">&lt;</tspan></text><text class="cls-2" transform="translate(483.5 395.33)"><tspan x="0" y="0">&gt;</tspan></text></svg>