<?xml version="1.0" encoding="UTF-8"?>
<svg id="Livello_1" xmlns="http://www.w3.org/2000/svg" version="1.1" viewBox="0 0 700 700">
  <!-- Generator: Adobe Illustrator 29.2.0, SVG Export Plug-In . SVG Version: 2.1.0 Build 108)  -->
  <defs>
    <style>
      .st0, .st1 {
        fill: #2c007e;
      }

      .st2 {
        fill: #fff;
        font-family: TimesNewRomanPSMT, 'Times New Roman';
      }

      .st2, .st1 {
        font-size: 136px;
        opacity: .98;
      }

      .st1 {
        font-family: TimesNewRomanPS-BoldMT, 'Times New Roman';
        font-weight: 700;
      }

      .st3 {
        fill: #281075;
      }
    </style>
  </defs>
  <g>
    <rect class="st3" x="622.22" y="388.89" width="19.45" height="19.44"/>
    <rect class="st3" x="622.22" y="369.44" width="19.45" height="19.45"/>
    <rect class="st3" x="622.22" y="330.56" width="19.45" height="19.44"/>
    <rect class="st3" x="622.22" y="311.11" width="19.45" height="19.45"/>
    <rect class="st3" x="622.22" y="291.67" width="19.45" height="19.44"/>
    <rect class="st3" x="602.78" y="408.33" width="19.44" height="19.45"/>
    <rect class="st3" x="602.78" y="388.89" width="19.44" height="19.44"/>
    <rect class="st0" x="602.78" y="369.44" width="19.44" height="19.45"/>
    <rect class="st3" x="602.78" y="350" width="19.44" height="19.44"/>
    <rect class="st3" x="602.78" y="330.56" width="19.44" height="19.44"/>
    <rect class="st3" x="602.78" y="311.11" width="19.44" height="19.45"/>
    <rect class="st3" x="602.78" y="291.67" width="19.44" height="19.44"/>
    <rect class="st3" x="602.78" y="272.22" width="19.44" height="19.45"/>
    <rect class="st3" x="602.78" y="252.78" width="19.44" height="19.44"/>
    <rect class="st3" x="583.33" y="427.78" width="19.45" height="19.44"/>
    <rect class="st3" x="583.33" y="408.33" width="19.45" height="19.45"/>
    <rect x="583.33" y="388.89" width="19.45" height="19.44"/>
    <rect x="583.33" y="369.44" width="19.45" height="19.45"/>
    <rect class="st3" x="583.33" y="350" width="19.45" height="19.44"/>
    <rect x="583.33" y="330.56" width="19.45" height="19.44"/>
    <rect x="583.33" y="311.11" width="19.45" height="19.45"/>
    <rect x="583.33" y="291.67" width="19.45" height="19.44"/>
    <rect class="st3" x="583.33" y="272.22" width="19.45" height="19.45"/>
    <rect class="st3" x="583.33" y="252.78" width="19.45" height="19.44"/>
    <rect class="st3" x="583.33" y="233.33" width="19.45" height="19.45"/>
    <rect class="st3" x="563.89" y="447.22" width="19.44" height="19.45"/>
    <rect class="st3" x="563.89" y="427.78" width="19.44" height="19.44"/>
    <rect x="563.89" y="408.33" width="19.44" height="19.45"/>
    <rect x="563.89" y="388.89" width="19.44" height="19.44"/>
    <rect x="563.89" y="369.44" width="19.44" height="19.45"/>
    <rect x="563.89" y="350" width="19.44" height="19.44"/>
    <rect x="563.89" y="330.56" width="19.44" height="19.44"/>
    <rect x="563.89" y="311.11" width="19.44" height="19.45"/>
    <rect x="563.89" y="291.67" width="19.44" height="19.44"/>
    <rect x="563.89" y="272.22" width="19.44" height="19.45"/>
    <rect x="563.89" y="252.78" width="19.44" height="19.44"/>
    <rect class="st0" x="563.89" y="233.33" width="19.44" height="19.45"/>
    <rect class="st3" x="563.89" y="213.89" width="19.44" height="19.44"/>
    <rect class="st3" x="544.44" y="447.22" width="19.45" height="19.45"/>
    <rect class="st0" x="544.44" y="427.78" width="19.45" height="19.44"/>
    <rect x="544.44" y="408.33" width="19.45" height="19.45"/>
    <rect x="544.44" y="388.89" width="19.45" height="19.44"/>
    <rect x="544.44" y="369.44" width="19.45" height="19.45"/>
    <rect x="544.44" y="350" width="19.45" height="19.44"/>
    <rect x="544.44" y="330.56" width="19.45" height="19.44"/>
    <rect x="544.44" y="311.11" width="19.45" height="19.45"/>
    <rect x="544.44" y="291.67" width="19.45" height="19.44"/>
    <rect x="544.44" y="272.22" width="19.45" height="19.45"/>
    <rect x="544.44" y="252.78" width="19.45" height="19.44"/>
    <rect class="st3" x="544.44" y="233.33" width="19.45" height="19.45"/>
    <rect class="st3" x="544.44" y="213.89" width="19.45" height="19.44"/>
    <rect class="st3" x="525" y="466.67" width="19.44" height="19.44"/>
    <rect class="st3" x="525" y="447.22" width="19.44" height="19.45"/>
    <rect x="525" y="427.78" width="19.44" height="19.44"/>
    <rect x="525" y="408.33" width="19.44" height="19.45"/>
    <rect x="525" y="388.89" width="19.44" height="19.44"/>
    <rect x="525" y="369.44" width="19.44" height="19.45"/>
    <rect x="525" y="350" width="19.44" height="19.44"/>
    <rect x="525" y="330.56" width="19.44" height="19.44"/>
    <rect x="525" y="311.11" width="19.44" height="19.45"/>
    <rect x="525" y="291.67" width="19.44" height="19.44"/>
    <rect x="525" y="272.22" width="19.44" height="19.45"/>
    <rect x="525" y="252.78" width="19.44" height="19.44"/>
    <rect x="525" y="233.33" width="19.44" height="19.45"/>
    <rect class="st3" x="525" y="213.89" width="19.44" height="19.44"/>
    <rect class="st3" x="525" y="194.44" width="19.44" height="19.45"/>
    <rect class="st3" x="505.56" y="486.11" width="19.44" height="19.45"/>
    <rect class="st3" x="505.56" y="466.67" width="19.44" height="19.44"/>
    <rect x="505.56" y="447.22" width="19.44" height="19.45"/>
    <rect x="505.56" y="427.78" width="19.44" height="19.44"/>
    <rect x="505.56" y="408.33" width="19.44" height="19.45"/>
    <rect x="505.56" y="388.89" width="19.44" height="19.44"/>
    <rect x="505.56" y="369.44" width="19.44" height="19.45"/>
    <rect x="505.56" y="350" width="19.44" height="19.44"/>
    <rect x="505.56" y="330.56" width="19.44" height="19.44"/>
    <rect x="505.56" y="311.11" width="19.44" height="19.45"/>
    <rect x="505.56" y="291.67" width="19.44" height="19.44"/>
    <rect x="505.56" y="272.22" width="19.44" height="19.45"/>
    <rect x="505.56" y="252.78" width="19.44" height="19.44"/>
    <rect x="505.56" y="233.33" width="19.44" height="19.45"/>
    <rect class="st3" x="505.56" y="213.89" width="19.44" height="19.44"/>
    <rect class="st3" x="505.56" y="194.44" width="19.44" height="19.45"/>
    <rect class="st3" x="486.11" y="486.11" width="19.45" height="19.45"/>
    <rect class="st0" x="486.11" y="466.67" width="19.45" height="19.44"/>
    <rect x="486.11" y="447.22" width="19.45" height="19.45"/>
    <rect x="486.11" y="427.78" width="19.45" height="19.44"/>
    <rect x="486.11" y="408.33" width="19.45" height="19.45"/>
    <rect x="486.11" y="388.89" width="19.45" height="19.44"/>
    <rect x="486.11" y="369.44" width="19.45" height="19.45"/>
    <rect x="486.11" y="350" width="19.45" height="19.44"/>
    <rect x="486.11" y="330.56" width="19.45" height="19.44"/>
    <rect x="486.11" y="311.11" width="19.45" height="19.45"/>
    <rect x="486.11" y="291.67" width="19.45" height="19.44"/>
    <rect x="486.11" y="272.22" width="19.45" height="19.45"/>
    <rect x="486.11" y="252.78" width="19.45" height="19.44"/>
    <rect x="486.11" y="233.33" width="19.45" height="19.45"/>
    <rect class="st3" x="486.11" y="213.89" width="19.45" height="19.44"/>
    <rect class="st3" x="486.11" y="194.44" width="19.45" height="19.45"/>
    <rect class="st3" x="466.67" y="466.67" width="19.44" height="19.44"/>
    <rect class="st3" x="466.67" y="447.22" width="19.44" height="19.45"/>
    <rect x="466.67" y="427.78" width="19.44" height="19.44"/>
    <rect x="466.67" y="408.33" width="19.44" height="19.45"/>
    <rect x="466.67" y="388.89" width="19.44" height="19.44"/>
    <rect x="466.67" y="369.44" width="19.44" height="19.45"/>
    <rect x="466.67" y="350" width="19.44" height="19.44"/>
    <rect x="466.67" y="330.56" width="19.44" height="19.44"/>
    <rect x="466.67" y="311.11" width="19.44" height="19.45"/>
    <rect x="466.67" y="291.67" width="19.44" height="19.44"/>
    <rect x="466.67" y="272.22" width="19.44" height="19.45"/>
    <rect x="466.67" y="252.78" width="19.44" height="19.44"/>
    <rect class="st0" x="466.67" y="233.33" width="19.44" height="19.45"/>
    <rect class="st3" x="466.67" y="213.89" width="19.44" height="19.44"/>
    <rect class="st3" x="447.22" y="466.67" width="19.45" height="19.44"/>
    <rect class="st0" x="447.22" y="447.22" width="19.45" height="19.45"/>
    <rect x="447.22" y="427.78" width="19.45" height="19.44"/>
    <rect x="447.22" y="408.33" width="19.45" height="19.45"/>
    <rect x="447.22" y="388.89" width="19.45" height="19.44"/>
    <rect class="st3" x="447.22" y="369.44" width="19.45" height="19.45"/>
    <rect x="447.22" y="350" width="19.45" height="19.44"/>
    <rect x="447.22" y="330.56" width="19.45" height="19.44"/>
    <rect class="st3" x="447.22" y="311.11" width="19.45" height="19.45"/>
    <rect class="st3" x="447.22" y="291.67" width="19.45" height="19.44"/>
    <rect x="447.22" y="272.22" width="19.45" height="19.45"/>
    <rect x="447.22" y="252.78" width="19.45" height="19.44"/>
    <rect class="st3" x="447.22" y="233.33" width="19.45" height="19.45"/>
    <rect class="st3" x="447.22" y="213.89" width="19.45" height="19.44"/>
    <rect class="st3" x="427.78" y="486.11" width="19.44" height="19.45"/>
    <rect class="st3" x="427.78" y="466.67" width="19.44" height="19.44"/>
    <rect x="427.78" y="447.22" width="19.44" height="19.45"/>
    <rect x="427.78" y="427.78" width="19.44" height="19.44"/>
    <rect x="427.78" y="408.33" width="19.44" height="19.45"/>
    <rect class="st3" x="427.78" y="388.89" width="19.44" height="19.44"/>
    <rect class="st3" x="427.78" y="369.44" width="19.44" height="19.45"/>
    <rect class="st3" x="427.78" y="350" width="19.44" height="19.44"/>
    <rect class="st3" x="427.78" y="330.56" width="19.44" height="19.44"/>
    <rect class="st3" x="427.78" y="311.11" width="19.44" height="19.45"/>
    <rect class="st3" x="427.78" y="291.67" width="19.44" height="19.44"/>
    <rect class="st3" x="427.78" y="272.22" width="19.44" height="19.45"/>
    <rect x="427.78" y="252.78" width="19.44" height="19.44"/>
    <rect x="427.78" y="233.33" width="19.44" height="19.45"/>
    <rect class="st3" x="427.78" y="213.89" width="19.44" height="19.44"/>
    <rect class="st3" x="427.78" y="194.44" width="19.44" height="19.45"/>
    <rect class="st3" x="408.33" y="486.11" width="19.45" height="19.45"/>
    <rect class="st3" x="408.33" y="466.67" width="19.45" height="19.44"/>
    <rect x="408.33" y="447.22" width="19.45" height="19.45"/>
    <rect class="st3" x="408.33" y="427.78" width="19.45" height="19.44"/>
    <rect class="st3" x="408.33" y="408.33" width="19.45" height="19.45"/>
    <rect class="st3" x="408.33" y="388.89" width="19.45" height="19.44"/>
    <rect class="st3" x="408.33" y="369.44" width="19.45" height="19.45"/>
    <rect class="st3" x="408.33" y="350" width="19.45" height="19.44"/>
    <rect class="st3" x="408.33" y="330.56" width="19.45" height="19.44"/>
    <rect class="st3" x="408.33" y="311.11" width="19.45" height="19.45"/>
    <rect class="st3" x="408.33" y="291.67" width="19.45" height="19.44"/>
    <rect class="st3" x="408.33" y="272.22" width="19.45" height="19.45"/>
    <rect class="st3" x="408.33" y="252.78" width="19.45" height="19.44"/>
    <rect class="st0" x="408.33" y="233.33" width="19.45" height="19.45"/>
    <rect class="st3" x="408.33" y="213.89" width="19.45" height="19.44"/>
    <rect class="st3" x="388.89" y="466.67" width="19.44" height="19.44"/>
    <rect class="st0" x="388.89" y="447.22" width="19.44" height="19.45"/>
    <rect class="st3" x="388.89" y="427.78" width="19.44" height="19.44"/>
    <rect class="st3" x="388.89" y="408.33" width="19.44" height="19.45"/>
    <rect class="st3" x="388.89" y="388.89" width="19.44" height="19.44"/>
    <rect class="st3" x="388.89" y="369.44" width="19.44" height="19.45"/>
    <rect class="st3" x="388.89" y="350" width="19.44" height="19.44"/>
    <rect class="st3" x="388.89" y="330.56" width="19.44" height="19.44"/>
    <rect class="st3" x="388.89" y="311.11" width="19.44" height="19.45"/>
    <rect class="st3" x="388.89" y="291.67" width="19.44" height="19.44"/>
    <rect class="st3" x="388.89" y="272.22" width="19.44" height="19.45"/>
    <rect class="st3" x="388.89" y="252.78" width="19.44" height="19.44"/>
    <rect class="st3" x="388.89" y="233.33" width="19.44" height="19.45"/>
    <rect class="st3" x="388.89" y="213.89" width="19.44" height="19.44"/>
    <rect class="st3" x="369.44" y="486.11" width="19.45" height="19.45"/>
    <rect class="st0" x="369.44" y="466.67" width="19.45" height="19.44"/>
    <rect class="st3" x="369.44" y="447.22" width="19.45" height="19.45"/>
    <rect class="st3" x="369.44" y="427.78" width="19.45" height="19.44"/>
    <rect class="st3" x="369.44" y="408.33" width="19.45" height="19.45"/>
    <rect class="st3" x="369.44" y="388.89" width="19.45" height="19.44"/>
    <rect class="st3" x="369.44" y="369.44" width="19.45" height="19.45"/>
    <rect class="st3" x="369.44" y="350" width="19.45" height="19.44"/>
    <rect class="st3" x="369.44" y="330.56" width="19.45" height="19.44"/>
    <rect class="st3" x="369.44" y="311.11" width="19.45" height="19.45"/>
    <rect class="st3" x="369.44" y="291.67" width="19.45" height="19.44"/>
    <rect class="st3" x="369.44" y="272.22" width="19.45" height="19.45"/>
    <rect class="st3" x="369.44" y="252.78" width="19.45" height="19.44"/>
    <rect class="st3" x="369.44" y="233.33" width="19.45" height="19.45"/>
    <rect class="st3" x="369.44" y="213.89" width="19.45" height="19.44"/>
    <rect class="st3" x="350" y="486.11" width="19.44" height="19.45"/>
    <rect class="st3" x="350" y="466.67" width="19.44" height="19.44"/>
    <rect class="st3" x="350" y="447.22" width="19.44" height="19.45"/>
    <rect class="st3" x="350" y="427.78" width="19.44" height="19.44"/>
    <rect class="st3" x="350" y="408.33" width="19.44" height="19.45"/>
    <rect class="st3" x="350" y="388.89" width="19.44" height="19.44"/>
    <rect class="st3" x="350" y="369.44" width="19.44" height="19.45"/>
    <rect class="st3" x="350" y="350" width="19.44" height="19.44"/>
    <rect class="st3" x="350" y="330.56" width="19.44" height="19.44"/>
    <rect class="st3" x="350" y="311.11" width="19.44" height="19.45"/>
    <rect class="st3" x="350" y="291.67" width="19.44" height="19.44"/>
    <rect class="st3" x="350" y="272.22" width="19.44" height="19.45"/>
    <rect class="st3" x="350" y="252.78" width="19.44" height="19.44"/>
    <rect class="st3" x="350" y="233.33" width="19.44" height="19.45"/>
    <rect class="st3" x="350" y="213.89" width="19.44" height="19.44"/>
    <rect class="st3" x="330.56" y="486.11" width="19.44" height="19.45"/>
    <rect class="st0" x="330.56" y="466.67" width="19.44" height="19.44"/>
    <rect class="st3" x="330.56" y="447.22" width="19.44" height="19.45"/>
    <rect class="st3" x="330.56" y="427.78" width="19.44" height="19.44"/>
    <rect class="st3" x="330.56" y="408.33" width="19.44" height="19.45"/>
    <rect class="st3" x="330.56" y="388.89" width="19.44" height="19.44"/>
    <rect class="st3" x="330.56" y="369.44" width="19.44" height="19.45"/>
    <rect class="st3" x="330.56" y="350" width="19.44" height="19.44"/>
    <rect class="st3" x="330.56" y="330.56" width="19.44" height="19.44"/>
    <rect class="st3" x="330.56" y="311.11" width="19.44" height="19.45"/>
    <rect class="st3" x="330.56" y="291.67" width="19.44" height="19.44"/>
    <rect class="st3" x="330.56" y="272.22" width="19.44" height="19.45"/>
    <rect class="st3" x="330.56" y="252.78" width="19.44" height="19.44"/>
    <rect class="st3" x="330.56" y="233.33" width="19.44" height="19.45"/>
    <rect class="st3" x="330.56" y="213.89" width="19.44" height="19.44"/>
    <rect class="st3" x="330.56" y="194.44" width="19.44" height="19.45"/>
    <rect class="st3" x="311.11" y="466.67" width="19.45" height="19.44"/>
    <rect class="st3" x="311.11" y="447.22" width="19.45" height="19.45"/>
    <rect class="st3" x="311.11" y="427.78" width="19.45" height="19.44"/>
    <rect class="st3" x="311.11" y="408.33" width="19.45" height="19.45"/>
    <rect class="st3" x="311.11" y="388.89" width="19.45" height="19.44"/>
    <rect class="st3" x="311.11" y="369.44" width="19.45" height="19.45"/>
    <rect class="st3" x="311.11" y="350" width="19.45" height="19.44"/>
    <rect class="st3" x="311.11" y="330.56" width="19.45" height="19.44"/>
    <rect class="st3" x="311.11" y="311.11" width="19.45" height="19.45"/>
    <rect class="st3" x="311.11" y="291.67" width="19.45" height="19.44"/>
    <rect class="st3" x="311.11" y="272.22" width="19.45" height="19.45"/>
    <rect class="st3" x="311.11" y="252.78" width="19.45" height="19.44"/>
    <rect class="st3" x="311.11" y="233.33" width="19.45" height="19.45"/>
    <rect class="st3" x="311.11" y="213.89" width="19.45" height="19.44"/>
    <rect class="st3" x="311.11" y="194.44" width="19.45" height="19.45"/>
    <rect class="st3" x="291.67" y="466.67" width="19.44" height="19.44"/>
    <rect class="st0" x="291.67" y="447.22" width="19.44" height="19.45"/>
    <rect class="st3" x="291.67" y="427.78" width="19.44" height="19.44"/>
    <rect class="st3" x="291.67" y="408.33" width="19.44" height="19.45"/>
    <rect class="st3" x="291.67" y="388.89" width="19.44" height="19.44"/>
    <rect class="st3" x="291.67" y="369.44" width="19.44" height="19.45"/>
    <rect class="st3" x="291.67" y="350" width="19.44" height="19.44"/>
    <rect class="st3" x="291.67" y="330.56" width="19.44" height="19.44"/>
    <rect class="st3" x="291.67" y="311.11" width="19.44" height="19.45"/>
    <rect class="st3" x="291.67" y="291.67" width="19.44" height="19.44"/>
    <rect class="st3" x="291.67" y="272.22" width="19.44" height="19.45"/>
    <rect class="st3" x="291.67" y="252.78" width="19.44" height="19.44"/>
    <rect class="st3" x="291.67" y="233.33" width="19.44" height="19.45"/>
    <rect class="st3" x="291.67" y="213.89" width="19.44" height="19.44"/>
    <rect class="st3" x="291.67" y="194.44" width="19.44" height="19.45"/>
    <rect class="st3" x="272.22" y="486.11" width="19.45" height="19.45"/>
    <rect class="st3" x="272.22" y="466.67" width="19.45" height="19.44"/>
    <rect class="st3" x="272.22" y="447.22" width="19.45" height="19.45"/>
    <rect class="st3" x="272.22" y="427.78" width="19.45" height="19.44"/>
    <rect class="st3" x="272.22" y="408.33" width="19.45" height="19.45"/>
    <rect class="st3" x="272.22" y="388.89" width="19.45" height="19.44"/>
    <rect class="st3" x="272.22" y="369.44" width="19.45" height="19.45"/>
    <rect class="st3" x="272.22" y="350" width="19.45" height="19.44"/>
    <rect class="st3" x="272.22" y="330.56" width="19.45" height="19.44"/>
    <rect class="st3" x="272.22" y="311.11" width="19.45" height="19.45"/>
    <rect class="st3" x="272.22" y="291.67" width="19.45" height="19.44"/>
    <rect class="st3" x="272.22" y="272.22" width="19.45" height="19.45"/>
    <rect x="272.22" y="252.78" width="19.45" height="19.44"/>
    <rect x="272.22" y="233.33" width="19.45" height="19.45"/>
    <rect class="st3" x="272.22" y="213.89" width="19.45" height="19.44"/>
    <rect class="st3" x="272.22" y="194.44" width="19.45" height="19.45"/>
    <rect class="st3" x="252.78" y="486.11" width="19.44" height="19.45"/>
    <rect class="st3" x="252.78" y="466.67" width="19.44" height="19.44"/>
    <rect class="st3" x="252.78" y="447.22" width="19.44" height="19.45"/>
    <rect class="st3" x="252.78" y="427.78" width="19.44" height="19.44"/>
    <rect class="st3" x="252.78" y="408.33" width="19.44" height="19.45"/>
    <rect class="st3" x="252.78" y="388.89" width="19.44" height="19.44"/>
    <rect class="st3" x="252.78" y="369.44" width="19.44" height="19.45"/>
    <rect class="st3" x="252.78" y="350" width="19.44" height="19.44"/>
    <rect class="st3" x="252.78" y="330.56" width="19.44" height="19.44"/>
    <rect class="st3" x="252.78" y="311.11" width="19.44" height="19.45"/>
    <rect class="st3" x="252.78" y="291.67" width="19.44" height="19.44"/>
    <rect x="252.78" y="272.22" width="19.44" height="19.45"/>
    <rect x="252.78" y="252.78" width="19.44" height="19.44"/>
    <rect x="252.78" y="233.33" width="19.44" height="19.45"/>
    <rect class="st3" x="252.78" y="213.89" width="19.44" height="19.44"/>
    <rect class="st3" x="252.78" y="194.44" width="19.44" height="19.45"/>
    <rect class="st3" x="233.33" y="486.11" width="19.45" height="19.45"/>
    <rect class="st3" x="233.33" y="466.67" width="19.45" height="19.44"/>
    <rect x="233.33" y="447.22" width="19.45" height="19.45"/>
    <rect x="233.33" y="427.78" width="19.45" height="19.44"/>
    <rect class="st3" x="233.33" y="408.33" width="19.45" height="19.45"/>
    <rect class="st3" x="233.33" y="388.89" width="19.45" height="19.44"/>
    <rect x="233.33" y="369.44" width="19.45" height="19.45"/>
    <rect x="233.33" y="350" width="19.45" height="19.44"/>
    <rect class="st3" x="233.33" y="330.56" width="19.45" height="19.44"/>
    <rect class="st3" x="233.33" y="311.11" width="19.45" height="19.45"/>
    <rect x="233.33" y="291.67" width="19.45" height="19.44"/>
    <rect x="233.33" y="272.22" width="19.45" height="19.45"/>
    <rect x="233.33" y="252.78" width="19.45" height="19.44"/>
    <rect x="233.33" y="233.33" width="19.45" height="19.45"/>
    <rect class="st3" x="233.33" y="213.89" width="19.45" height="19.44"/>
    <rect class="st3" x="233.33" y="194.44" width="19.45" height="19.45"/>
    <rect class="st3" x="213.89" y="486.11" width="19.44" height="19.45"/>
    <rect class="st0" x="213.89" y="466.67" width="19.44" height="19.44"/>
    <rect x="213.89" y="447.22" width="19.44" height="19.45"/>
    <rect x="213.89" y="427.78" width="19.44" height="19.44"/>
    <rect x="213.89" y="408.33" width="19.44" height="19.45"/>
    <rect x="213.89" y="388.89" width="19.44" height="19.44"/>
    <rect x="213.89" y="369.44" width="19.44" height="19.45"/>
    <rect x="213.89" y="350" width="19.44" height="19.44"/>
    <rect x="213.89" y="330.56" width="19.44" height="19.44"/>
    <rect class="st3" x="213.89" y="311.11" width="19.44" height="19.45"/>
    <rect x="213.89" y="291.67" width="19.44" height="19.44"/>
    <rect x="213.89" y="272.22" width="19.44" height="19.45"/>
    <rect x="213.89" y="252.78" width="19.44" height="19.44"/>
    <rect x="213.89" y="233.33" width="19.44" height="19.45"/>
    <rect class="st3" x="213.89" y="213.89" width="19.44" height="19.44"/>
    <rect class="st3" x="213.89" y="194.44" width="19.44" height="19.45"/>
    <rect class="st3" x="194.44" y="466.67" width="19.45" height="19.44"/>
    <rect class="st3" x="194.44" y="447.22" width="19.45" height="19.45"/>
    <rect x="194.44" y="427.78" width="19.45" height="19.44"/>
    <rect x="194.44" y="408.33" width="19.45" height="19.45"/>
    <rect x="194.44" y="388.89" width="19.45" height="19.44"/>
    <rect x="194.44" y="369.44" width="19.45" height="19.45"/>
    <rect x="194.44" y="350" width="19.45" height="19.44"/>
    <rect x="194.44" y="330.56" width="19.45" height="19.44"/>
    <rect x="194.44" y="311.11" width="19.45" height="19.45"/>
    <rect x="194.44" y="291.67" width="19.45" height="19.44"/>
    <rect x="194.44" y="272.22" width="19.45" height="19.45"/>
    <rect x="194.44" y="252.78" width="19.45" height="19.44"/>
    <rect x="194.44" y="233.33" width="19.45" height="19.45"/>
    <rect class="st3" x="194.44" y="213.89" width="19.45" height="19.44"/>
    <rect class="st3" x="194.44" y="194.44" width="19.45" height="19.45"/>
    <rect class="st3" x="175" y="466.67" width="19.44" height="19.44"/>
    <rect class="st3" x="175" y="447.22" width="19.44" height="19.45"/>
    <rect x="175" y="427.78" width="19.44" height="19.44"/>
    <rect x="175" y="408.33" width="19.44" height="19.45"/>
    <rect x="175" y="388.89" width="19.44" height="19.44"/>
    <rect x="175" y="369.44" width="19.44" height="19.45"/>
    <rect x="175" y="350" width="19.44" height="19.44"/>
    <rect x="175" y="330.56" width="19.44" height="19.44"/>
    <rect x="175" y="311.11" width="19.44" height="19.45"/>
    <rect x="175" y="291.67" width="19.44" height="19.44"/>
    <rect x="175" y="272.22" width="19.44" height="19.45"/>
    <rect x="175" y="252.78" width="19.44" height="19.44"/>
    <rect class="st3" x="175" y="233.33" width="19.44" height="19.45"/>
    <rect class="st3" x="175" y="213.89" width="19.44" height="19.44"/>
    <rect class="st3" x="155.56" y="486.11" width="19.44" height="19.45"/>
    <rect class="st3" x="155.56" y="466.67" width="19.44" height="19.44"/>
    <rect x="155.56" y="447.22" width="19.44" height="19.45"/>
    <rect x="155.56" y="427.78" width="19.44" height="19.44"/>
    <rect x="155.56" y="408.33" width="19.44" height="19.45"/>
    <rect x="155.56" y="388.89" width="19.44" height="19.44"/>
    <rect x="155.56" y="369.44" width="19.44" height="19.45"/>
    <rect x="155.56" y="350" width="19.44" height="19.44"/>
    <rect x="155.56" y="330.56" width="19.44" height="19.44"/>
    <rect x="155.56" y="311.11" width="19.44" height="19.45"/>
    <rect x="155.56" y="291.67" width="19.44" height="19.44"/>
    <rect x="155.56" y="272.22" width="19.44" height="19.45"/>
    <rect x="155.56" y="252.78" width="19.44" height="19.44"/>
    <rect class="st3" x="155.56" y="233.33" width="19.44" height="19.45"/>
    <rect class="st3" x="155.56" y="213.89" width="19.44" height="19.44"/>
    <rect class="st3" x="136.11" y="466.67" width="19.45" height="19.44"/>
    <rect class="st0" x="136.11" y="447.22" width="19.45" height="19.45"/>
    <rect x="136.11" y="427.78" width="19.45" height="19.44"/>
    <rect x="136.11" y="408.33" width="19.45" height="19.45"/>
    <rect x="136.11" y="388.89" width="19.45" height="19.44"/>
    <rect x="136.11" y="369.44" width="19.45" height="19.45"/>
    <rect x="136.11" y="350" width="19.45" height="19.44"/>
    <rect x="136.11" y="330.56" width="19.45" height="19.44"/>
    <rect x="136.11" y="311.11" width="19.45" height="19.45"/>
    <rect x="136.11" y="291.67" width="19.45" height="19.44"/>
    <rect x="136.11" y="272.22" width="19.45" height="19.45"/>
    <rect x="136.11" y="252.78" width="19.45" height="19.44"/>
    <rect class="st3" x="136.11" y="233.33" width="19.45" height="19.45"/>
    <rect class="st3" x="136.11" y="213.89" width="19.45" height="19.44"/>
    <rect class="st3" x="116.67" y="447.22" width="19.44" height="19.45"/>
    <rect class="st3" x="116.67" y="427.78" width="19.44" height="19.44"/>
    <rect class="st3" x="116.67" y="408.33" width="19.44" height="19.45"/>
    <rect x="116.67" y="388.89" width="19.44" height="19.44"/>
    <rect x="116.67" y="369.44" width="19.44" height="19.45"/>
    <rect x="116.67" y="350" width="19.44" height="19.44"/>
    <rect x="116.67" y="330.56" width="19.44" height="19.44"/>
    <rect x="116.67" y="311.11" width="19.44" height="19.45"/>
    <rect x="116.67" y="291.67" width="19.44" height="19.44"/>
    <rect x="116.67" y="272.22" width="19.44" height="19.45"/>
    <rect class="st0" x="116.67" y="252.78" width="19.44" height="19.44"/>
    <rect class="st3" x="116.67" y="233.33" width="19.44" height="19.45"/>
    <rect class="st3" x="97.22" y="427.78" width="19.45" height="19.44"/>
    <rect class="st3" x="97.22" y="408.33" width="19.45" height="19.45"/>
    <rect class="st0" x="97.22" y="388.89" width="19.45" height="19.44"/>
    <rect x="97.22" y="369.44" width="19.45" height="19.45"/>
    <rect x="97.22" y="350" width="19.45" height="19.44"/>
    <rect x="97.22" y="330.56" width="19.45" height="19.44"/>
    <rect x="97.22" y="311.11" width="19.45" height="19.45"/>
    <rect class="st3" x="97.22" y="291.67" width="19.45" height="19.44"/>
    <rect class="st3" x="97.22" y="272.22" width="19.45" height="19.45"/>
    <rect class="st3" x="97.22" y="252.78" width="19.45" height="19.44"/>
    <rect class="st3" x="77.78" y="388.89" width="19.44" height="19.44"/>
    <rect class="st3" x="77.78" y="369.44" width="19.44" height="19.45"/>
    <rect class="st3" x="77.78" y="350" width="19.44" height="19.44"/>
    <rect class="st3" x="77.78" y="330.56" width="19.44" height="19.44"/>
    <rect class="st3" x="77.78" y="311.11" width="19.44" height="19.45"/>
    <rect class="st3" x="77.78" y="291.67" width="19.44" height="19.44"/>
    <rect class="st3" x="77.78" y="272.22" width="19.44" height="19.45"/>
    <rect class="st3" x="58.33" y="369.44" width="19.45" height="19.45"/>
    <rect class="st3" x="58.33" y="350" width="19.45" height="19.44"/>
    <rect class="st3" x="58.33" y="330.56" width="19.45" height="19.44"/>
    <rect class="st3" x="58.33" y="311.11" width="19.45" height="19.45"/>
  </g>
  <text class="st2" transform="translate(263.07 397.26)"><tspan x="0" y="0">AF</tspan></text>
  <text class="st1" transform="translate(119.25 395.08)"><tspan x="0" y="0">&lt;</tspan></text>
  <text class="st1" transform="translate(483.25 395.08)"><tspan x="0" y="0">&gt;</tspan></text>
</svg>